<svg width="43" height="47" viewBox="0 0 43 47" fill="none" xmlns="http://www.w3.org/2000/svg">
<path d="M27.3926 18.2901C31.5333 18.2901 34.0815 11.9995 34.0815 8.02656C34.0815 4.71573 32.4889 0.742734 29.3037 0.742734C25.163 0.742734 22.6148 7.03331 22.6148 11.0063C22.6148 14.3171 24.2074 18.2901 27.3926 18.2901ZM15.2889 18.2901C18.4741 18.2901 20.0667 14.3171 20.0667 11.0063C20.0667 6.70222 17.5185 0.411652 13.3778 0.411652C10.1926 0.411652 8.6 4.38464 8.6 7.69547C8.28148 11.9995 10.8296 18.2901 15.2889 18.2901ZM38.8593 14.9793C34.7185 14.9793 31.8519 20.9388 31.8519 25.2429C31.8519 28.2226 33.1259 31.2024 35.9926 31.2024C40.1333 31.2024 43 25.2429 43 20.9388C43 17.959 41.4074 14.9793 38.8593 14.9793ZM11.1481 25.2429C11.1481 20.9388 7.96296 14.9793 4.14074 14.9793C1.27407 14.9793 0 17.959 0 20.9388C0 25.2429 3.18519 31.2024 7.00741 31.2024C9.87407 31.2024 11.1481 28.2226 11.1481 25.2429ZM21.3407 24.5807C14.9704 24.5807 6.37037 35.1753 6.37037 42.4592C6.37037 45.77 8.6 46.7632 11.1481 46.7632C14.9704 46.7632 17.837 44.1146 21.3407 44.1146C24.5259 44.1146 27.3926 46.7632 30.8963 46.7632C33.4444 46.7632 36.3111 46.1011 36.3111 42.4592C36.3111 35.1753 27.7111 24.5807 21.3407 24.5807Z" fill="#07A081"/>
</svg>
